<?xml version="1.0" encoding="utf-8"?>
<!-- Generator: Adobe Illustrator 19.2.1, SVG Export Plug-In . SVG Version: 6.00 Build 0)  -->
<svg version="1.1" id="Слой_1" xmlns="http://www.w3.org/2000/svg" xmlns:xlink="http://www.w3.org/1999/xlink" x="0px" y="0px"
	 viewBox="0 0 488.8 580.6" style="enable-background:new 0 0 488.8 580.6;" xml:space="preserve">
<style type="text/css">
	.st0{fill:#FEFEFE;}
</style>
<g id="Слой_x0020_1">
	<g id="_782191872">
		<circle class="st0" cx="277.8" cy="35.2" r="33.9"/>
		<path class="st0" d="M386.8,580.6c-95,0-189.9,0-284.9,0c-94.3,0-129.3-80.9-78.9-161.1C51.6,374,116.6,308.1,153.9,262V135.9
			c-7.2,0-14.4,0-21.5,0c0-14.7,0-29.4,0-44.2c37.3,0,74.6,0,112,0s74.6,0,112,0c0,14.7,0,29.4,0,44.2c-7.2,0-14.4,0-21.5,0V262
			c37.4,46.1,102.4,112,130.9,157.4C516.2,499.6,481.1,580.6,386.8,580.6L386.8,580.6z M231.8,177.4c19.3,0,35,15.6,35,35
			s-15.6,35-35,35c-12.4,0-23.2-6.4-29.5-16.1v44.5c-33.2,42.6-66.2,81-100.3,122.3c-11.2,13.5-22.3,27.7-31.5,41.2
			c-23.8,34.8-41.9,70.4,9,91.3c9.2-63.6,50.5-122.9,90.9-173.9h179.2c-21-27-42-54-63.1-81c0-46.6,0-93.2,0-139.8
			c-28,0-56.1,0-84.1,0v57.7C208.5,183.8,219.4,177.4,231.8,177.4L231.8,177.4z M210,383.5c17.1,0,31,13.9,31,31
			c0,17.1-13.9,31-31,31s-31-13.9-31-31C178.9,397.3,192.8,383.5,210,383.5z M311.4,427.4c23.8,0,43.1,19.3,43.1,43.1
			s-19.3,43.1-43.1,43.1c-23.8,0-43.1-19.3-43.1-43.1S287.6,427.4,311.4,427.4z"/>
	</g>
</g>
</svg>
